name Walk6.mot
datacolumns 19
datarows 17
range 1.83000000 1.91000000
endheader

                time	   L_ground_force_vx	   L_ground_force_vy	   L_ground_force_vz	   L_ground_force_px	   L_ground_force_py	   L_ground_force_pz	   R_ground_force_vx	   R_ground_force_vy	   R_ground_force_vz	   R_ground_force_px	   R_ground_force_py	   R_ground_force_pz	   L_ground_torque_x	   L_ground_torque_y	   L_ground_torque_z	   R_ground_torque_x	   R_ground_torque_y	   R_ground_torque_z	
          1.83000000	          0.18789488	          0.38234981	         -0.01311553	          0.00029778	          0.00000000	          0.00019807	         -3.39989295	        572.83946578	        -48.22052919	          0.14763561	          0.00000000	          0.04326738	          0.00000000	         -0.00006813	          0.00000000	          0.00000000	          2.90349418	          0.00000000	
          1.83500000	          0.15381178	          0.36516766	         -0.01446653	          0.00003507	          0.00000000	          0.00005921	         -1.86719026	        567.55022998	        -48.25746349	          0.15011363	          0.00000000	          0.04337937	          0.00000000	         -0.00003884	          0.00000000	          0.00000000	          2.96612949	          0.00000000	
          1.84000000	          0.11979029	          0.32526874	         -0.01418877	         -0.00013617	          0.00000000	         -0.00003452	         -0.54507248	        563.32661924	        -48.29801319	          0.15267543	          0.00000000	          0.04348056	          0.00000000	         -0.00001699	          0.00000000	          0.00000000	          3.04319278	          0.00000000	
          1.84500000	          0.08849901	          0.27395750	         -0.01288849	         -0.00023522	          0.00000000	         -0.00009190	          0.57279282	        560.20432877	        -48.34432394	          0.15531951	          0.00000000	          0.04357117	          0.00000000	         -0.00000164	          0.00000000	          0.00000000	          3.13347166	          0.00000000	
          1.85000000	          0.06143331	          0.21938588	         -0.01103532	         -0.00028013	          0.00000000	         -0.00012143	          1.50105768	        558.19396229	        -48.39834713	          0.15803758	          0.00000000	          0.04364982	          0.00000000	          0.00000834	          0.00000000	          0.00000000	          3.23483580	          0.00000000	
          1.85500000	          0.03921797	          0.16703938	         -0.00897415	         -0.00028678	          0.00000000	         -0.00013076	          2.26280599	        557.28589214	        -48.46227567	          0.16081638	          0.00000000	          0.04371562	          0.00000000	          0.00001408	          0.00000000	          0.00000000	          3.34416243	          0.00000000	
          1.86000000	          0.02187004	          0.12025979	         -0.00694262	         -0.00026836	          0.00000000	         -0.00012640	          2.88665179	        557.45157182	        -48.53980184	          0.16364030	          0.00000000	          0.04376635	          0.00000000	          0.00001665	          0.00000000	          0.00000000	          3.45728983	          0.00000000	
          1.86500000	          0.00901549	          0.08074985	         -0.00509077	         -0.00023532	          0.00000000	         -0.00011361	          3.40401126	        558.64927518	        -48.63671191	          0.16649423	          0.00000000	          0.04380033	          0.00000000	          0.00001698	          0.00000000	          0.00000000	          3.56966162	          0.00000000	
          1.87000000	          0.00005910	          0.04902656	         -0.00350059	         -0.00019553	          0.00000000	         -0.00009642	          3.84765150	        560.82795156	        -48.76010433	          0.16936357	          0.00000000	          0.04381885	          0.00000000	          0.00001584	          0.00000000	          0.00000000	          3.67695026	          0.00000000	
          1.87500000	         -0.00568913	          0.02480561	         -0.00220398	         -0.00015454	          0.00000000	         -0.00007777	          4.25045185	        563.92886033	        -48.91777496	          0.17223354	          0.00000000	          0.04382426	          0.00000000	          0.00001387	          0.00000000	          0.00000000	          3.77493204	          0.00000000	
          1.88000000	         -0.00892542	          0.00731137	         -0.00119819	         -0.00011604	          0.00000000	         -0.00005966	          4.64440154	        567.89028605	        -49.11766490	          0.17508992	          0.00000000	          0.04381931	          0.00000000	          0.00001150	          0.00000000	          0.00000000	          3.85933841	          0.00000000	
          1.88500000	         -0.01029490	         -0.00448559	         -0.00045843	         -0.00008217	          0.00000000	         -0.00004333	          5.05946677	        572.65115063	        -49.36649778	          0.17791910	          0.00000000	          0.04380769	          0.00000000	          0.00000907	          0.00000000	          0.00000000	          3.92620069	          0.00000000	
          1.89000000	         -0.01035891	         -0.01169600	          0.00005222	         -0.00005395	          0.00000000	         -0.00002943	          5.52182545	        578.15094409	        -49.66914678	          0.18070986	          0.00000000	          0.04379301	          0.00000000	          0.00000680	          0.00000000	          0.00000000	          3.97215838	          0.00000000	
          1.89500000	         -0.00958070	         -0.01539488	          0.00037556	         -0.00003159	          0.00000000	         -0.00001819	          6.05218264	        584.32636148	        -50.02794740	          0.18345347	          0.00000000	          0.04377675	          0.00000000	          0.00000480	          0.00000000	          0.00000000	          3.99449282	          0.00000000	
          1.90000000	         -0.00832393	         -0.01654935	          0.00055321	         -0.00001475	          0.00000000	         -0.00000954	          6.66653714	        591.10876001	        -50.44175767	          0.18614167	          0.00000000	          0.04375782	          0.00000000	          0.00000314	          0.00000000	          0.00000000	          3.99110548	          0.00000000	
          1.90500000	         -0.00685967	         -0.01598084	          0.00062338	         -0.00000278	          0.00000000	         -0.00000324	          7.37841351	        598.42786740	        -50.90591911	          0.18876454	          0.00000000	          0.04373244	          0.00000000	          0.00000183	          0.00000000	          0.00000000	          3.96007290	          0.00000000	
          1.91000000	         -0.00537815	         -0.01435237	          0.00061908	          0.00000511	          0.00000000	          0.00000105	          8.20109261	        606.21860687	        -51.41303473	          0.19130948	          0.00000000	          0.04369464	          0.00000000	          0.00000084	          0.00000000	          0.00000000	          3.89924831	          0.00000000	
